#!OML:ASF E:\motion texture\Top Level 1\Subject 1\Session 1\male.ASF
:FULLY-SPECIFIED
:DEGREES
356
root -21.4153 18.2177 3.56023 500.304 -78.2256 -494.228
lowerback -1.64396 -4.93076 6.43804
upperback -5.09966 -6.6674 6.43144
thorax -4.33956 -3.58168 3.27095
lowerneck -4.12518 -13.7249 -15.4819
upperneck 12.3886 -19.3851 11.7568
head 7.11461 -9.55987 4.3488
rclavicle 7.0171e-014 -1.66979e-014
rhumerus -1.16415 -4.79206 -71.3064
rradius 64.6872
rwrist -33.3543
rhand -16.8918 -50.2264
rfingers 7.12502
rthumb 9.33975 280.001
lclavicle 7.0171e-014 -1.66979e-014
lhumerus 5.40655 -30.2145 94.0184
lradius 61.4285
lwrist 21.7414
lhand -7.96254 41.7349
lfingers 7.12502
lthumb 17.9449 70.927
rfemur -5.56724 4.15778 31.267
rtibia 12.1337
rfoot -7.0231 -5.54176
rtoes 17.4211
lfemur -26.2158 11.2605 -6.99469
ltibia 49.9765
lfoot -9.10057 10.7676
ltoes -13.8575
357
root -21.5466 18.2133 3.54195 500.155 -78.1446 -493.981
lowerback -1.71342 -4.82891 6.54064
upperback -5.16397 -6.53427 6.3559
thorax -4.38959 -3.52193 3.13195
lowerneck -4.15278 -13.642 -15.468
upperneck 12.5801 -19.2301 11.4447
head 7.12528 -9.50099 4.26735
rclavicle -2.72335e-014 -5.56597e-014
rhumerus -0.0761547 -6.48183 -71.0893
rradius 64.1853
rwrist -32.2541
rhand -16.9379 -49.5055
rfingers 7.12502
rthumb 9.29531 280.719
lclavicle -2.72335e-014 -5.56597e-014
lhumerus 5.87099 -29.2488 93.7737
lradius 62.1113
lwrist 20.5771
lhand -8.47469 41.2268
lfingers 7.12502
lthumb 17.452 70.4634
rfemur -5.12673 4.28926 31.4374
rtibia 12.0346
rfoot -7.30721 -5.67733
rtoes 17.2551
lfemur -26.6676 11.1528 -6.88134
ltibia 48.2681
lfoot -9.36047 10.9233
ltoes -13.9013
358
root -21.6786 18.2074 3.52426 499.931 -78.0721 -493.663
lowerback -1.78581 -4.72838 6.64728
upperback -5.22359 -6.40362 6.28019
thorax -4.43271 -3.4636 2.98997
lowerneck -4.16928 -13.5673 -15.466
upperneck 12.7628 -19.0892 11.1498
head 7.13681 -9.44933 4.19142
rclavicle -9.40251e-014 1.35174e-014
rhumerus 0.930676 -8.08371 -70.8851
rradius 63.7605
rwrist -31.2865
rhand -17.1893 -48.9301
rfingers 7.12502
rthumb 9.05264 281.284
lclavicle -9.40251e-014 1.35174e-014
lhumerus 6.31115 -28.363 93.5291
lradius 62.7753
lwrist 19.4731
lhand -8.97338 40.7503
lfingers 7.12502
lthumb 16.9721 70.0288
rfemur -4.69385 4.38719 31.6075
rtibia 11.9582
rfoot -7.6069 -5.79535
rtoes 17.0404
lfemur -27.0462 10.9853 -6.75188
ltibia 46.4252
lfoot -9.53598 11.0612
ltoes -13.9156
359
root -21.8108 18.2005 3.50688 499.587 -78.0114 -493.233
lowerback -1.84415 -4.63124 6.76168
upperback -5.27624 -6.27626 6.20334
thorax -4.47671 -3.40713 2.84366
lowerneck -4.18696 -13.5002 -15.4816
upperneck 12.9301 -18.9639 10.903
head 7.15295 -9.40348 4.13045
rclavicle 6.55989e-015 -2.54444e-014
rhumerus 1.85958 -9.59997 -70.6855
rradius 63.4092
rwrist -30.4278
rhand -17.4887 -48.449
rfingers 7.12502
rthumb 8.76373 281.753
lclavicle 6.55989e-015 -2.54444e-014
lhumerus 6.73523 -27.5452 93.2879
lradius 63.4132
lwrist 18.4503
lhand -9.41207 40.2937
lfingers 7.12502
lthumb 16.5497 69.608
rfemur -4.25753 4.4465 31.7844
rtibia 11.8921
rfoot -7.91872 -5.91518
rtoes 16.8365
lfemur -27.3486 10.753 -6.59806
ltibia 44.4515
lfoot -9.61883 11.1771
ltoes -13.9155
360
root -21.944 18.1928 3.48996 499.156 -77.9478 -492.729
lowerback -1.8957 -4.53278 6.8909
upperback -5.32189 -6.14678 6.12514
thorax -4.5182 -3.35014 2.68805
lowerneck -4.19153 -13.4399 -15.5072
upperneck 13.0817 -18.8531 10.6882
head 7.16842 -9.36405 4.07978
rclavicle -2.20651e-014 7.95139e-016
rhumerus 2.70087 -11.0091 -70.4769
rradius 63.1231
rwrist -29.6715
rhand -17.8047 -48.0337
rfingers 7.12502
rthumb 8.45884 282.156
lclavicle -2.20651e-014 7.95139e-016
lhumerus 7.13609 -26.7889 93.0498
lradius 64.0269
lwrist 17.5349
lhand -9.74676 39.8962
lfingers 7.12502
lthumb 16.2275 69.237
rfemur -3.81413 4.45263 31.9712
rtibia 11.8366
rfoot -8.24046 -6.03262
rtoes 16.6422
lfemur -27.5593 10.4655 -6.41078
ltibia 42.3368
lfoot -9.59081 11.2743
ltoes -13.9312
361
root -22.078 18.1839 3.47341 498.668 -77.8844 -492.166
lowerback -1.94822 -4.43952 7.02306
upperback -5.36501 -6.0248 6.05222
thorax -4.55546 -3.2971 2.53624
lowerneck -4.19825 -13.3792 -15.5363
upperneck 13.2277 -18.741 10.4793
head 7.18355 -9.32401 4.03137
rclavicle 3.48867e-014 1.11319e-014
rhumerus 3.46262 -12.2784 -70.2495
rradius 62.8869
rwrist -28.9798
rhand -18.1372 -47.6825
rfingers 7.12502
rthumb 8.13789 282.494
lclavicle 3.48867e-014 1.11319e-014
lhumerus 7.50145 -26.086 92.8131
lradius 64.6262
lwrist 16.7275
lhand -10.0337 39.572
lfingers 7.12502
lthumb 15.9512 68.9352
rfemur -3.37946 4.39259 32.1625
rtibia 11.7916
rfoot -8.56814 -6.16028
rtoes 16.459
lfemur -27.695 10.1149 -6.19603
ltibia 40.0849
lfoot -9.43515 11.3554
ltoes -13.9291
362
root -22.2129 18.174 3.45719 498.13 -77.814 -491.548
lowerback -2.00014 -4.34954 7.1638
upperback -5.41209 -5.90738 5.98523
thorax -4.59684 -3.24706 2.38652
lowerneck -4.20451 -13.3154 -15.5623
upperneck 13.3717 -18.6242 10.2676
head 7.19705 -9.282 3.98235
rclavicle -1.37161e-014 7.15625e-014
rhumerus 4.1319 -13.3919 -69.991
rradius 62.6978
rwrist -28.3486
rhand -18.5272 -47.3895
rfingers 7.12502
rthumb 7.76155 282.773
lclavicle -1.37161e-014 7.15625e-014
lhumerus 7.81686 -25.4365 92.5775
lradius 65.2119
lwrist 16.0295
lhand -10.2935 39.2967
lfingers 7.12502
lthumb 15.701 68.6797
rfemur -2.95564 4.27151 32.3649
rtibia 11.7576
rfoot -8.90025 -6.30761
rtoes 16.2541
lfemur -27.7523 9.70107 -5.94402
ltibia 37.6877
lfoot -9.1319 11.4201
ltoes -13.9373
363
root -22.3492 18.1625 3.44113 497.574 -77.7529 -490.898
lowerback -2.06714 -4.26134 7.29641
upperback -5.45944 -5.79432 5.91864
thorax -4.62836 -3.19897 2.24023
lowerneck -4.24781 -13.2489 -15.5674
upperneck 13.5246 -18.4988 10.0496
head 7.21631 -9.23405 3.92687
rclavicle -5.30755e-014 7.63333e-014
rhumerus 4.7173 -14.3658 -69.6934
rradius 62.5401
rwrist -27.7472
rhand -18.9913 -47.1383
rfingers 7.12502
rthumb 7.31357 283.008
lclavicle -5.30755e-014 7.63333e-014
lhumerus 8.0926 -24.8576 92.341
lradius 65.7835
lwrist 15.4413
lhand -10.5553 39.0564
lfingers 7.12502
lthumb 15.4488 68.459
rfemur -2.54905 4.09421 32.5621
rtibia 11.7285
rfoot -9.22948 -6.47804
rtoes 15.9733
lfemur -27.7409 9.21004 -5.67284
ltibia 35.1385
lfoot -8.67037 11.4684
ltoes -13.9746
364
root -22.4862 18.1497 3.42517 497.009 -77.6911 -490.218
lowerback -2.14414 -4.17569 7.42254
upperback -5.51161 -5.6861 5.85762
thorax -4.65746 -3.15334 2.10278
lowerneck -4.32912 -13.1787 -15.5455
upperneck 13.6874 -18.3619 9.81425
head 7.23984 -9.17917 3.86104
rclavicle 2.28602e-015 2.06736e-014
rhumerus 5.21425 -15.1897 -69.3553
rradius 62.4148
rwrist -27.1505
rhand -19.4858 -46.9157
rfingers 7.12502
rthumb 6.83621 283.215
lclavicle 2.28602e-015 2.06736e-014
lhumerus 8.33079 -24.3425 92.0911
lradius 66.3404
lwrist 14.9564
lhand -10.8252 38.8462
lfingers 7.12502
lthumb 15.1888 68.2687
rfemur -2.17257 3.8982 32.7658
rtibia 11.7153
rfoot -9.55557 -6.68019
rtoes 15.592
lfemur -27.671 8.64501 -5.3685
ltibia 32.4446
lfoot -8.07373 11.5093
ltoes -14.1138
365
root -22.6244 18.1358 3.40921 496.47 -77.6256 -489.544
lowerback -2.23809 -4.08454 7.54386
upperback -5.5639 -5.57287 5.79592
thorax -4.67583 -3.10512 1.96552
lowerneck -4.44173 -13.1126 -15.4939
upperneck 13.8555 -18.2253 9.56185
head 7.26647 -9.12309 3.78346
rclavicle -2.74323e-014 4.05521e-014
rhumerus 5.61756 -15.8903 -68.9689
rradius 62.3159
rwrist -26.5517
rhand -19.9509 -46.6676
rfingers 7.12502
rthumb 6.38717 283.449
lclavicle -2.74323e-014 4.05521e-014
lhumerus 8.53045 -23.9009 91.8375
lradius 66.8841
lwrist 14.5635
lhand -11.0675 38.6599
lfingers 7.12502
lthumb 14.9554 68.1
rfemur -1.82239 3.71204 32.9734
rtibia 11.7198
rfoot -9.88217 -6.90376
rtoes 15.1341
lfemur -27.5488 8.00422 -5.0304
ltibia 29.6353
lfoot -7.4191 11.5617
ltoes -14.3616
366
root -22.7641 18.1213 3.39351 495.971 -77.5417 -488.903
lowerback -2.33219 -3.9863 7.66701
upperback -5.61818 -5.45063 5.7387
thorax -4.69507 -3.05278 1.83193
lowerneck -4.5694 -13.0434 -15.431
upperneck 14.0241 -18.0831 9.3117
head 7.29483 -9.0635 3.7047
rclavicle 3.70733e-014 -6.20208e-014
rhumerus 5.91547 -16.466 -68.531
rradius 62.249
rwrist -25.9432
rhand -20.3661 -46.3839
rfingers 7.12502
rthumb 5.98636 283.721
lclavicle 3.70733e-014 -6.20208e-014
lhumerus 8.67896 -23.5216 91.5826
lradius 67.4213
lwrist 14.2647
lhand -11.2654 38.4936
lfingers 7.12502
lthumb 14.7648 67.9477
rfemur -1.48515 3.55513 33.19
rtibia 11.7459
rfoot -10.2073 -7.11873
rtoes 14.6146
lfemur -27.3612 7.29066 -4.64467
ltibia 26.7427
lfoot -6.79225 11.6497
ltoes -14.6546
367
root -22.905 18.1061 3.37802 495.552 -77.4408 -488.333
lowerback -2.43739 -3.87863 7.78314
upperback -5.67248 -5.31765 5.68533
thorax -4.70587 -2.99489 1.70489
lowerneck -4.6919 -12.972 -15.3638
upperneck 14.1805 -17.938 9.06575
head 7.31852 -9.00255 3.62759
rclavicle 2.0773e-014 3.4191e-014
rhumerus 6.10452 -16.9261 -68.0374
rradius 62.221
rwrist -25.3404
rhand -20.7207 -46.0513
rfingers 7.12502
rthumb 5.64405 284.044
lclavicle 2.0773e-014 3.4191e-014
lhumerus 8.77789 -23.1915 91.3394
lradius 67.9478
lwrist 14.0542
lhand -11.3824 38.3536
lfingers 7.12502
lthumb 14.6521 67.816
rfemur -1.17285 3.44239 33.4075
rtibia 11.808
rfoot -10.5345 -7.31235
rtoes 14.0579
lfemur -27.1336 6.50821 -4.2174
ltibia 23.8247
lfoot -6.27732 11.8089
ltoes -14.9712
368
root -23.0478 18.0905 3.36303 495.264 -77.3203 -487.895
lowerback -2.54921 -3.75687 7.89242
upperback -5.73051 -5.16695 5.62932
thorax -4.71505 -2.92822 1.57816
lowerneck -4.78063 -12.8994 -15.3045
upperneck 14.3265 -17.7972 8.82961
head 7.33583 -8.94518 3.55642
rclavicle 6.60959e-014 -7.55382e-014
rhumerus 6.16309 -17.2829 -67.4896
rradius 62.2415
rwrist -24.7539
rhand -21.0124 -45.6676
rfingers 7.12502
rthumb 5.36235 284.42
lclavicle 6.60959e-014 -7.55382e-014
lhumerus 8.80579 -22.9072 91.1177
lradius 68.468
lwrist 13.9513
lhand -11.3976 38.2315
lfingers 7.12502
lthumb 14.6374 67.6949
rfemur -0.870933 3.36996 33.6124
rtibia 11.9097
rfoot -10.8628 -7.45442
rtoes 13.4523
lfemur -26.8595 5.66757 -3.75776
ltibia 20.927
lfoot -5.91851 12.0729
ltoes -15.2862
369
root -23.1925 18.074 3.34869 495.123 -77.1972 -487.602
lowerback -2.67679 -3.62838 7.97734
upperback -5.78729 -5.00953 5.57291
thorax -4.71054 -2.85704 1.46267
lowerneck -4.84717 -12.8171 -15.2597
upperneck 14.4459 -17.6467 8.6197
head 7.34375 -8.88306 3.49877
rclavicle 1.43622e-014 -1.11319e-014
rhumerus 6.11324 -17.5309 -66.8983
rradius 62.312
rwrist -24.189
rhand -21.2685 -45.2599
rfingers 7.12502
rthumb 5.11513 284.822
lclavicle 1.43622e-014 -1.11319e-014
lhumerus 8.76995 -22.663 90.9081
lradius 68.9927
lwrist 13.9259
lhand -11.3511 38.1557
lfingers 7.12502
lthumb 14.6823 67.6159
rfemur -0.588277 3.31509 33.7834
rtibia 12.0508
rfoot -11.1806 -7.53494
rtoes 12.7354
lfemur -26.5702 4.77323 -3.29259
ltibia 18.1083
lfoot -5.72108 12.4807
ltoes -15.5487
